<svg width="24" height="24" viewBox="0 1 24 24" fill="none" xmlns="http://www.w3.org/2000/svg">
<path fill-rule="evenodd" clip-rule="evenodd" d="M13 5.125C13 4.57272 12.5523 4.125 12 4.125C11.4477 4.125 11 4.57272 11 5.125V11H5.125C4.57272 11 4.125 11.4477 4.125 12C4.125 12.5523 4.57272 13 5.125 13H11V18.875C11 19.4273 11.4477 19.875 12 19.875C12.5523 19.875 13 19.4273 13 18.875V13H18.875C19.4273 13 19.875 12.5523 19.875 12C19.875 11.4477 19.4273 11 18.875 11H13V5.125Z" fill="white" fill-opacity="0.56"/>
</svg>
