<svg width="31" height="14" viewBox="0 0 31 14" fill="none" xmlns="http://www.w3.org/2000/svg">
<path d="M15.7651 2.88277L16.9196 6.43609C16.9418 6.50443 17.0049 6.54998 17.0765 6.54998H20.8127C20.9728 6.54998 21.0391 6.75498 20.9096 6.8487L17.8867 9.04447C17.8288 9.08677 17.8047 9.16096 17.8268 9.2293L18.9813 12.7826C19.0308 12.9349 18.8564 13.0612 18.7269 12.9674L15.704 10.7717C15.646 10.7294 15.5679 10.7294 15.51 10.7717L12.4871 12.9674C12.3576 13.0618 12.1832 12.9349 12.2326 12.7826L13.3871 9.2293C13.4093 9.16096 13.3852 9.08677 13.3273 9.04447L10.3043 6.8487C10.1748 6.75433 10.2412 6.54998 10.4013 6.54998H14.1375C14.2091 6.54998 14.2722 6.50378 14.2943 6.43609L15.4488 2.88277C15.5003 2.73048 15.7157 2.73048 15.7651 2.88277Z" stroke="#24B23E" stroke-width="0.7" stroke-miterlimit="10" stroke-linecap="round" stroke-linejoin="round"/>
<path d="M5.13553 1.08542L5.99914 3.7439C6.01541 3.79466 6.06291 3.82916 6.11693 3.82916H8.91273C9.03248 3.82916 9.08194 3.98209 8.98562 4.05303L6.72347 5.69628C6.67986 5.72752 6.66229 5.78349 6.67856 5.83425L7.54216 8.49273C7.57926 8.60662 7.4491 8.70099 7.35213 8.6307L5.09063 6.9881C5.04703 6.95687 4.98846 6.95687 4.9455 6.9881L2.684 8.63135C2.58703 8.70164 2.45687 8.60727 2.49397 8.49339L3.35757 5.8349C3.37384 5.78414 3.35627 5.72817 3.31267 5.69693L1.05116 4.05303C0.954194 3.98274 1.00431 3.82916 1.12405 3.82916H3.91985C3.97322 3.82916 4.02073 3.79466 4.03765 3.7439L4.9006 1.08542C4.93769 0.971528 5.09844 0.971528 5.13553 1.08542Z" stroke="#24B23E" stroke-width="0.7" stroke-miterlimit="10" stroke-linecap="round" stroke-linejoin="round"/>
<path d="M26.3146 1.08542L27.1782 3.7439C27.1944 3.79466 27.242 3.82916 27.296 3.82916H30.0918C30.2115 3.82916 30.261 3.98209 30.1647 4.05303L27.9032 5.69628C27.8596 5.72752 27.842 5.78349 27.8583 5.83425L28.7219 8.49273C28.7589 8.60662 28.6288 8.70099 28.5318 8.6307L26.2703 6.98745C26.2267 6.95621 26.1681 6.95621 26.1252 6.98745L23.8637 8.6307C23.7667 8.70099 23.6366 8.60662 23.6737 8.49273L24.5373 5.83425C24.5535 5.78349 24.536 5.72752 24.4924 5.69628L22.2308 4.05303C22.1339 3.98274 22.184 3.82916 22.3037 3.82916H25.0995C25.1529 3.82916 25.2004 3.79466 25.2173 3.7439L26.0809 1.08542C26.1167 0.971528 26.2775 0.971528 26.3146 1.08542Z" stroke="#24B23E" stroke-width="0.7" stroke-miterlimit="10" stroke-linecap="round" stroke-linejoin="round"/>
<path d="M10.2412 1.52075L10.9447 2.73903" stroke="#24B23E" stroke-width="0.7" stroke-miterlimit="10" stroke-linecap="round" stroke-linejoin="round"/>
<path d="M20.0224 1.78101L19.0273 2.77607" stroke="#24B23E" stroke-width="0.7" stroke-miterlimit="10" stroke-linecap="round" stroke-linejoin="round"/>
<path d="M21.6875 11.0222L20.3286 11.386" stroke="#24B23E" stroke-width="0.7" stroke-miterlimit="10" stroke-linecap="round" stroke-linejoin="round"/>
<path d="M9.00488 10.6968L10.2232 11.4003" stroke="#24B23E" stroke-width="0.7" stroke-miterlimit="10" stroke-linecap="round" stroke-linejoin="round"/>
</svg>
