<svg width="24" height="24" viewBox="-4 -2 24 24" fill="none" xmlns="http://www.w3.org/2000/svg">
<path fill-rule="evenodd" clip-rule="evenodd" d="M6.42334 0C4.76649 0 3.42334 1.34315 3.42334 3C3.42334 3.41421 3.75913 3.75 4.17334 3.75C4.58755 3.75 4.92334 3.41421 4.92334 3C4.92334 2.17157 5.59491 1.5 6.42334 1.5H9.92334C10.7518 1.5 11.4233 2.17157 11.4233 3C11.4233 3.41421 11.7591 3.75 12.1733 3.75C12.5876 3.75 12.9233 3.41421 12.9233 3C12.9233 1.34315 11.5802 0 9.92334 0H6.42334ZM0.17334 5.75C0.17334 5.33579 0.509126 5 0.92334 5H2.17334H3.67334H12.6733H14.1733H15.4233C15.8376 5 16.1733 5.33579 16.1733 5.75C16.1733 6.16421 15.8376 6.5 15.4233 6.5H14.1733V16.5C14.1733 17.8807 13.0541 19 11.6733 19H4.67334C3.29263 19 2.17334 17.8807 2.17334 16.5V6.5H0.92334C0.509126 6.5 0.17334 6.16421 0.17334 5.75ZM3.67334 6.5H12.6733V16.5C12.6733 17.0523 12.2256 17.5 11.6733 17.5H4.67334C4.12106 17.5 3.67334 17.0523 3.67334 16.5V6.5Z" fill="white" fill-opacity="0.56"/>
</svg>
