<svg width="24" height="24" viewBox="3 0 24 24" fill="none" xmlns="http://www.w3.org/2000/svg">
<path d="M4.27299 16.9615C4.09767 17.1471 4 17.3928 4 17.6481V20C4 20.5523 4.44772 21 5 21H7.11013C7.38526 21 7.64823 20.8866 7.83714 20.6866L17.5313 10.4222C17.7861 10.1524 17.7861 9.73067 17.5313 9.4609L14.953 6.7309C14.6768 6.43842 14.2114 6.43842 13.9352 6.7309L4.27299 16.9615ZM20.7238 7.04194C21.0921 6.65199 21.0921 6.02208 20.7238 5.63213L18.5141 3.29246C18.1458 2.90251 17.5509 2.90251 17.1826 3.29246L15.4545 5.12221L18.9957 8.87168L20.7238 7.04194Z" fill="url(#paint0_linear_304_8599)"/>
<defs>
<linearGradient id="paint0_linear_304_8599" x1="4" y1="21" x2="19.7528" y2="22.0323" gradientUnits="userSpaceOnUse">
<stop stop-color="#1DD13B"/>
<stop offset="1" stop-color="#27C6E5"/>
</linearGradient>
</defs>
</svg>
