<svg width="25" height="22" viewBox="0 0 25 22" fill="none" xmlns="http://www.w3.org/2000/svg">
<mask id="path-1-inside-1_1_3095" fill="white">
<path d="M1.32359 21.3536H23.9202L15.8993 12.9415L9.22107 19.4562C9.11148 19.5629 8.94183 19.579 8.81438 19.495L5.33037 17.1928L1.32359 21.3536ZM24.6759 22H0.562178C0.432298 22 0.314595 21.9225 0.263455 21.8037C0.212315 21.6849 0.237479 21.5467 0.327583 21.453L5.0487 16.5503C5.15747 16.4372 5.332 16.4178 5.46269 16.5043L8.95319 18.8105L15.6793 12.2489C15.741 12.1883 15.8254 12.1528 15.9123 12.1568C15.9991 12.1584 16.0819 12.1948 16.142 12.2578L24.9105 21.4546C24.9998 21.5483 25.0249 21.6857 24.973 21.8045C24.9235 21.9233 24.8058 22 24.6759 22Z"/>
</mask>
<path d="M1.32359 21.3536H23.9202L15.8993 12.9415L9.22107 19.4562C9.11148 19.5629 8.94183 19.579 8.81438 19.495L5.33037 17.1928L1.32359 21.3536ZM24.6759 22H0.562178C0.432298 22 0.314595 21.9225 0.263455 21.8037C0.212315 21.6849 0.237479 21.5467 0.327583 21.453L5.0487 16.5503C5.15747 16.4372 5.332 16.4178 5.46269 16.5043L8.95319 18.8105L15.6793 12.2489C15.741 12.1883 15.8254 12.1528 15.9123 12.1568C15.9991 12.1584 16.0819 12.1948 16.142 12.2578L24.9105 21.4546C24.9998 21.5483 25.0249 21.6857 24.973 21.8045C24.9235 21.9233 24.8058 22 24.6759 22Z" fill="#24B23E"/>
<path d="M1.32359 21.3536L-4.43892 15.8044L-17.4865 29.3536H1.32359V21.3536ZM23.9202 21.3536V29.3536H42.6018L29.7101 15.833L23.9202 21.3536ZM15.8993 12.9415L21.6892 7.42085L16.1052 1.56448L10.313 7.21494L15.8993 12.9415ZM9.22107 19.4562L14.8011 25.1889L14.8074 25.1827L9.22107 19.4562ZM8.81438 19.495L4.40394 26.1694L4.4103 26.1736L8.81438 19.495ZM5.33037 17.1928L9.74081 10.5183L4.1861 6.8478L-0.432144 11.6436L5.33037 17.1928ZM0.327583 21.453L-5.43495 15.9038L-5.43995 15.909L0.327583 21.453ZM5.0487 16.5503L10.8112 22.0995L10.8155 22.095L5.0487 16.5503ZM5.46269 16.5043L1.04853 23.1763L1.05258 23.1789L5.46269 16.5043ZM8.95319 18.8105L4.54308 25.4852L9.92351 29.0402L14.5396 24.537L8.95319 18.8105ZM15.6793 12.2489L21.2657 17.9754L21.2757 17.9656L21.2857 17.9558L15.6793 12.2489ZM15.9123 12.1568L15.5405 20.1482L15.6519 20.1533L15.7635 20.1554L15.9123 12.1568ZM16.142 12.2578L10.3508 17.777L10.3519 17.7782L16.142 12.2578ZM24.9105 21.4546L30.703 15.9368L30.7006 15.9342L24.9105 21.4546ZM24.973 21.8045L17.6433 18.5989L17.6155 18.6624L17.5889 18.7264L24.973 21.8045ZM1.32359 29.3536H23.9202V13.3536H1.32359V29.3536ZM29.7101 15.833L21.6892 7.42085L10.1094 18.4621L18.1303 26.8742L29.7101 15.833ZM10.313 7.21494L3.63474 13.7297L14.8074 25.1827L21.4856 18.668L10.313 7.21494ZM3.64108 13.7235C6.2185 11.2147 10.202 10.8272 13.2185 12.8164L4.4103 26.1736C7.68164 28.3308 12.0045 27.911 14.8011 25.1889L3.64108 13.7235ZM13.2248 12.8206L9.74081 10.5183L0.919928 23.8672L4.40394 26.1694L13.2248 12.8206ZM-0.432144 11.6436L-4.43892 15.8044L7.08611 26.9028L11.0929 22.742L-0.432144 11.6436ZM24.6759 14H0.562178V30H24.6759V14ZM0.562178 14C3.62431 14 6.39764 15.8209 7.61144 18.6403L-7.08453 24.9671C-5.76845 28.0241 -2.75971 30 0.562178 30V14ZM7.61144 18.6403C8.83852 21.4905 8.22561 24.7805 6.09512 26.9969L-5.43995 15.909C-7.75065 18.3129 -8.41389 21.8793 -7.08453 24.9671L7.61144 18.6403ZM6.09011 27.0021L10.8112 22.0995L-0.713831 11.0012L-5.43494 15.9038L6.09011 27.0021ZM10.8155 22.095C8.2523 24.761 4.14438 25.2245 1.04853 23.1763L9.87684 9.83231C6.51961 7.61118 2.06264 8.11347 -0.718129 11.0056L10.8155 22.095ZM1.05258 23.1789L4.54308 25.4852L13.3633 12.1359L9.87279 9.82963L1.05258 23.1789ZM14.5396 24.537L21.2657 17.9754L10.0929 6.52248L3.3668 13.0841L14.5396 24.537ZM21.2857 17.9558C19.9071 19.3102 17.8762 20.2568 15.5405 20.1482L16.284 4.16545C13.7747 4.04872 11.575 5.06647 10.0729 6.54204L21.2857 17.9558ZM15.7635 20.1554C13.7125 20.1173 11.764 19.2599 10.3508 17.777L21.9333 6.73863C20.3999 5.1297 18.2858 4.19958 16.0611 4.15819L15.7635 20.1554ZM10.3519 17.7782L19.1204 26.975L30.7006 15.9342L21.9321 6.73739L10.3519 17.7782ZM19.1179 26.9724C17.0168 24.7666 16.3858 21.4742 17.6433 18.5989L32.3027 25.0101C33.6641 21.8972 32.9828 18.33 30.703 15.9368L19.1179 26.9724ZM17.5889 18.7264C18.816 15.7825 21.6666 14 24.6759 14V30C27.945 30 31.0309 28.0641 32.3571 24.8826L17.5889 18.7264Z" fill="#24B23E" mask="url(#path-1-inside-1_1_3095)"/>
<path d="M0.0909779 18.9942L0.0942249 18.9909C0.0946294 18.9905 0.0950348 18.9901 0.095441 18.9897L0.324761 19.2128L0.326949 19.2149L0.325738 19.2162L0.324761 19.2172L0.322549 19.2195L0.297967 19.1956L0.297966 19.1956L0.0909779 18.9942ZM0.0909779 18.9942C-0.0340309 19.1227 -0.0291604 19.3255 0.0990954 19.4499C0.099603 19.4504 0.100112 19.4509 0.100622 19.4514L0.320551 19.2247L0.319055 19.2232L0.0991836 19.4498L0.31898 19.2232L0.0909779 18.9942ZM0.553673 18.9845C0.553164 18.984 0.552654 18.9835 0.552142 18.983L0.329239 19.2127L0.330744 19.2142L0.553673 18.9845ZM0.553673 18.9845C0.681929 19.1089 0.685176 19.3134 0.560167 19.4418M0.553673 18.9845L0.33146 19.2149L0.560167 19.4418M0.560167 19.4418C0.559758 19.4423 0.559349 19.4427 0.558939 19.4431C0.557856 19.4442 0.556767 19.4452 0.555673 19.4463L0.32489 19.2217L0.32807 19.2185L0.329277 19.2172L0.560167 19.4418ZM0.548184 19.4533C0.484933 19.5112 0.404847 19.5404 0.324761 19.5404C0.244884 19.5404 0.164222 19.5115 0.102109 19.4528L0.321295 19.2255L0.324761 19.229L0.548184 19.4533ZM0.0999219 18.9852C0.162297 18.9242 0.243374 18.8933 0.324761 18.8928C0.406369 18.8923 0.488291 18.9223 0.551983 18.9828L0.32916 19.2127L0.324761 19.2083L0.0999219 18.9852ZM0.325817 19.2163L0.327028 19.215L0.328547 19.2165L0.327336 19.2177L0.324761 19.2204L0.324145 19.221L0.322626 19.2195L0.324761 19.2173L0.325817 19.2163Z" fill="#24B23E" stroke="#24B23E" stroke-width="5"/>
<mask id="path-4-inside-2_1_3095" fill="white">
<path d="M4.09826 15.6236C4.01709 15.6236 3.93592 15.5937 3.87341 15.5331C3.74434 15.4095 3.74028 15.205 3.86448 15.0757L3.87016 15.0701C3.99436 14.9416 4.19973 14.9367 4.3288 15.0612C4.45787 15.1848 4.46193 15.3893 4.33773 15.5177L4.33205 15.5234C4.26873 15.5905 4.1835 15.6236 4.09826 15.6236ZM3.15339 16.6038C3.07222 16.6038 2.99186 16.5739 2.92854 16.5133C2.79947 16.3897 2.79541 16.1852 2.91961 16.0567L2.92529 16.0511C3.04949 15.9226 3.25486 15.9186 3.38393 16.0422C3.513 16.1658 3.51705 16.3703 3.39286 16.4988L3.38718 16.5044C3.32386 16.5707 3.23863 16.6038 3.15339 16.6038ZM2.20933 17.5848C2.12816 17.5848 2.04698 17.5549 1.98448 17.4943C1.85541 17.3707 1.85135 17.1662 1.97555 17.0377L1.98123 17.0313C2.10543 16.9028 2.3108 16.8979 2.44068 17.0224C2.56975 17.146 2.57381 17.3505 2.44961 17.4798L2.44393 17.4862C2.3798 17.5517 2.29457 17.5848 2.20933 17.5848ZM1.26527 18.565C1.1841 18.565 1.10374 18.5351 1.04042 18.4745C0.911352 18.3509 0.907293 18.1464 1.03149 18.0179L1.03717 18.0115C1.16137 17.883 1.36674 17.879 1.49581 18.0026C1.62488 18.1262 1.62893 18.3307 1.50474 18.4592L1.49906 18.4656C1.43574 18.5319 1.35051 18.565 1.26527 18.565Z"/>
</mask>
<path d="M4.09826 15.6236C4.01709 15.6236 3.93592 15.5937 3.87341 15.5331C3.74434 15.4095 3.74028 15.205 3.86448 15.0757L3.87016 15.0701C3.99436 14.9416 4.19973 14.9367 4.3288 15.0612C4.45787 15.1848 4.46193 15.3893 4.33773 15.5177L4.33205 15.5234C4.26873 15.5905 4.1835 15.6236 4.09826 15.6236ZM3.15339 16.6038C3.07222 16.6038 2.99186 16.5739 2.92854 16.5133C2.79947 16.3897 2.79541 16.1852 2.91961 16.0567L2.92529 16.0511C3.04949 15.9226 3.25486 15.9186 3.38393 16.0422C3.513 16.1658 3.51705 16.3703 3.39286 16.4988L3.38718 16.5044C3.32386 16.5707 3.23863 16.6038 3.15339 16.6038ZM2.20933 17.5848C2.12816 17.5848 2.04698 17.5549 1.98448 17.4943C1.85541 17.3707 1.85135 17.1662 1.97555 17.0377L1.98123 17.0313C2.10543 16.9028 2.3108 16.8979 2.44068 17.0224C2.56975 17.146 2.57381 17.3505 2.44961 17.4798L2.44393 17.4862C2.3798 17.5517 2.29457 17.5848 2.20933 17.5848ZM1.26527 18.565C1.1841 18.565 1.10374 18.5351 1.04042 18.4745C0.911352 18.3509 0.907293 18.1464 1.03149 18.0179L1.03717 18.0115C1.16137 17.883 1.36674 17.879 1.49581 18.0026C1.62488 18.1262 1.62893 18.3307 1.50474 18.4592L1.49906 18.4656C1.43574 18.5319 1.35051 18.565 1.26527 18.565Z" fill="#24B23E"/>
<path d="M3.87341 15.5331L7.35402 11.9435L7.34312 11.9329L7.33216 11.9224L3.87341 15.5331ZM3.86448 15.0757L0.337147 11.532L0.297426 11.5715L0.258601 11.612L3.86448 15.0757ZM3.87016 15.0701L7.3975 18.6138L7.43167 18.5798L7.46518 18.5451L3.87016 15.0701ZM4.3288 15.0612L0.858317 18.6606L0.864174 18.6662L0.87005 18.6719L4.3288 15.0612ZM4.33773 15.5177L7.86545 19.0611L7.89942 19.0272L7.93274 18.9928L4.33773 15.5177ZM4.33205 15.5234L0.804327 11.9801L0.749408 12.0347L0.696211 12.0911L4.33205 15.5234ZM2.92854 16.5133L-0.530211 20.124L-0.52885 20.1253L2.92854 16.5133ZM2.91961 16.0567L-0.607724 12.513L-0.641895 12.547L-0.675403 12.5817L2.91961 16.0567ZM2.92529 16.0511L6.45263 19.5948L6.4868 19.5608L6.52031 19.5261L2.92529 16.0511ZM3.39286 16.4988L6.92058 20.0421L6.95455 20.0083L6.98787 19.9738L3.39286 16.4988ZM3.38718 16.5044L-0.140545 12.9611L-0.184738 13.0051L-0.22782 13.0502L3.38718 16.5044ZM1.98448 17.4943L5.46508 13.9047L5.45419 13.8941L5.44323 13.8836L1.98448 17.4943ZM1.97555 17.0377L5.57056 20.5128L5.65289 20.4276L5.73108 20.3386L1.97555 17.0377ZM1.98123 17.0313L-1.61378 13.5562L-1.6961 13.6414L-1.7743 13.7304L1.98123 17.0313ZM2.44068 17.0224L-1.01851 20.6327L-1.01807 20.6331L2.44068 17.0224ZM2.44961 17.4798L-1.15627 14.016L-1.2329 14.0958L-1.30593 14.1789L2.44961 17.4798ZM2.44393 17.4862L6.01547 20.9854L6.11015 20.8887L6.19946 20.7871L2.44393 17.4862ZM1.04042 18.4745L-2.41833 22.0852L-2.41697 22.0865L1.04042 18.4745ZM1.03149 18.0179L4.6265 21.493L4.70883 21.4078L4.78702 21.3189L1.03149 18.0179ZM1.03717 18.0115L-2.55784 14.5364L-2.64016 14.6216L-2.71836 14.7106L1.03717 18.0115ZM1.50474 18.4592L-2.09028 14.9841L-2.17258 15.0693L-2.25075 15.1582L1.50474 18.4592ZM1.49906 18.4656L5.11405 21.9199L5.18589 21.8447L5.25455 21.7666L1.49906 18.4656ZM4.09826 10.6236C5.24254 10.6236 6.43189 11.0493 7.35402 11.9435L0.392807 19.1227C1.43995 20.1381 2.79164 20.6236 4.09826 20.6236V10.6236ZM7.33216 11.9224C9.20716 13.7185 9.25336 16.6833 7.47036 18.5395L0.258601 11.612C-1.77279 13.7267 -1.71847 17.1004 0.414661 19.1438L7.33216 11.9224ZM7.39182 18.6194L7.3975 18.6138L0.34283 11.5264L0.337147 11.532L7.39182 18.6194ZM7.46518 18.5451C5.69211 20.3794 2.73626 20.4713 0.858317 18.6606L7.79928 11.4618C5.66321 9.4022 2.29661 9.50378 0.275151 11.595L7.46518 18.5451ZM0.87005 18.6719C-0.998539 16.8819 -1.06117 13.9089 0.742717 12.0427L7.93274 18.9928C9.98503 16.8696 9.91428 13.4877 7.78755 11.4505L0.87005 18.6719ZM0.810009 11.9744L0.804327 11.9801L7.85977 19.0667L7.86545 19.0611L0.810009 11.9744ZM0.696211 12.0911C1.63263 11.0991 2.88991 10.6236 4.09826 10.6236V20.6236C5.47709 20.6236 6.90483 20.0818 7.96788 18.9557L0.696211 12.0911ZM3.15339 11.6038C4.31687 11.6038 5.4876 12.0414 6.38593 12.9013L-0.52885 20.1253C0.496107 21.1064 1.82757 21.6038 3.15339 21.6038V11.6038ZM6.38729 12.9026C8.25587 14.6926 8.31852 17.6656 6.51462 19.5318L-0.675403 12.5817C-2.72769 14.7048 -2.65693 18.0868 -0.530211 20.124L6.38729 12.9026ZM6.44694 19.6004L6.45263 19.5948L-0.602042 12.5074L-0.607724 12.513L6.44694 19.6004ZM6.52031 19.5261C4.733 21.3751 1.7855 21.4349 -0.0748217 19.6529L6.84268 12.4315C4.72422 10.4022 1.36598 10.4701 -0.66972 12.576L6.52031 19.5261ZM-0.0748217 19.6529C-1.9434 17.8629 -2.00605 14.8899 -0.202155 13.0237L6.98787 19.9738C9.04016 17.8506 8.9694 14.4687 6.84268 12.4315L-0.0748217 19.6529ZM-0.134863 12.9554L-0.140545 12.9611L6.9149 20.0477L6.92058 20.0421L-0.134863 12.9554ZM-0.22782 13.0502C0.703404 12.0756 1.94899 11.6038 3.15339 11.6038V21.6038C4.52826 21.6038 5.94432 21.0657 7.00217 19.9587L-0.22782 13.0502ZM2.20933 12.5848C3.3536 12.5848 4.54295 13.0106 5.46508 13.9047L-1.49612 21.0839C-0.448983 22.0993 0.902716 22.5848 2.20933 22.5848V12.5848ZM5.44323 13.8836C7.31181 15.6736 7.37446 18.6466 5.57056 20.5128L-1.61946 13.5627C-3.67175 15.6859 -3.60099 19.0678 -1.47427 21.105L5.44323 13.8836ZM5.73108 20.3386L5.73677 20.3322L-1.7743 13.7304L-1.77998 13.7368L5.73108 20.3386ZM5.57625 20.5063C3.79697 22.347 0.849441 22.4224 -1.01851 20.6327L5.89987 13.4121C3.77216 11.3735 0.413888 11.4586 -1.61378 13.5562L5.57625 20.5063ZM-1.01807 20.6331C-2.89307 18.837 -2.93927 15.8722 -1.15627 14.016L6.05549 20.9435C8.08688 18.8288 8.03256 15.4551 5.89943 13.4117L-1.01807 20.6331ZM-1.30593 14.1789L-1.31161 14.1853L6.19946 20.7871L6.20514 20.7807L-1.30593 14.1789ZM-1.12762 13.9871C-0.215423 13.056 1.00287 12.5848 2.20933 12.5848V22.5848C3.58626 22.5848 4.97502 22.0474 6.01547 20.9854L-1.12762 13.9871ZM1.26527 13.565C2.42879 13.565 3.59952 14.0027 4.49781 14.8625L-2.41697 22.0865C-1.39205 23.0676 -0.0605979 23.565 1.26527 23.565V13.565ZM4.49917 14.8638C6.36775 16.6538 6.4304 19.6268 4.6265 21.493L-2.56352 14.5429C-4.61581 16.6661 -4.54505 20.048 -2.41833 22.0852L4.49917 14.8638ZM4.78702 21.3189L4.79271 21.3124L-2.71836 14.7106L-2.72404 14.717L4.78702 21.3189ZM4.63218 21.4865C2.84488 23.3355 -0.102617 23.3953 -1.96294 21.6133L4.95456 14.3919C2.8361 12.3626 -0.522142 12.4305 -2.55784 14.5364L4.63218 21.4865ZM-1.96294 21.6133C-3.83152 19.8233 -3.89417 16.8503 -2.09028 14.9841L5.09975 21.9342C7.15204 19.8111 7.08128 16.4291 4.95456 14.3919L-1.96294 21.6133ZM-2.25075 15.1582L-2.25643 15.1647L5.25455 21.7666L5.26023 21.7601L-2.25075 15.1582ZM-2.11594 15.0114C-1.18475 14.0369 0.0608195 13.565 1.26527 13.565V23.565C2.64019 23.565 4.05623 23.0269 5.11405 21.9199L-2.11594 15.0114Z" fill="#24B23E" mask="url(#path-4-inside-2_1_3095)"/>
<path d="M4.80942 14.0937C4.87318 14.0269 4.95988 13.9922 5.04727 13.9927C5.06836 13.9928 5.08949 13.9949 5.11036 13.9992C5.11556 14.0002 5.12075 14.0014 5.12592 14.0028C5.15951 14.0113 5.19219 14.0254 5.2226 14.0452C5.23817 14.0554 5.2526 14.0666 5.26586 14.0788L5.06851 14.2889L5.06543 14.2866L5.06539 14.2866L5.05687 14.2802L5.04904 14.2743L5.04727 14.2729L4.80942 14.0937ZM4.80942 14.0937L4.80699 14.097C4.79516 14.1094 4.78453 14.1226 4.7751 14.1362C4.77449 14.1371 4.77389 14.138 4.77329 14.1389C4.68637 14.2676 4.70416 14.4424 4.82079 14.5527M4.80942 14.0937L4.83466 14.1178L4.83466 14.1178L5.02829 14.3026L5.03501 14.309L5.0402 14.314L5.04274 14.3164L5.04067 14.3186L5.0387 14.3207L4.82079 14.5527M4.82079 14.5527C4.83563 14.5667 4.85145 14.579 4.86802 14.5896C4.86806 14.5896 4.86809 14.5897 4.86813 14.5897C4.89956 14.6098 4.93376 14.624 4.96934 14.6319C4.99531 14.6384 5.02129 14.6416 5.04727 14.6416C5.13245 14.6416 5.21657 14.6079 5.27872 14.5443C5.27918 14.5439 5.27965 14.5434 5.28011 14.5429L5.04727 14.3207L5.04688 14.3203L5.04479 14.3183L5.04474 14.3183L5.04356 14.3172L5.04149 14.3194L5.03823 14.3228L4.82079 14.5527ZM5.06952 14.2897L5.26752 14.0803C5.37773 14.1831 5.40536 14.3511 5.32598 14.483L5.06952 14.2897Z" fill="#24B23E" stroke="#24B23E" stroke-width="5"/>
<path d="M6.10675 15.406L6.106 15.4056L6.10343 15.4038L6.27874 15.1346L6.2835 15.1377L6.25177 15.1859L6.25177 15.1859L6.10675 15.406ZM6.10675 15.406C6.10695 15.4062 6.10715 15.4063 6.10736 15.4064C6.1624 15.4425 6.22387 15.4594 6.28533 15.4594C6.3894 15.4594 6.49189 15.4099 6.55387 15.3178L6.28533 15.139L6.2844 15.1383L6.26999 15.1601L6.26999 15.1601L6.10675 15.406ZM6.0069 14.9535L6.23131 15.1018L6.27704 15.132L6.27721 15.1317L6.27825 15.1301L6.283 15.123L6.2846 15.1206L6.01616 14.9403C6.01559 14.9411 6.01502 14.9419 6.01445 14.9427C6.0123 14.9456 6.01019 14.9486 6.00812 14.9517C6.00772 14.9523 6.00731 14.9529 6.0069 14.9535ZM6.0069 14.9535C6.00662 14.9539 6.00635 14.9544 6.00607 14.9548C5.90908 15.1031 5.95037 15.3022 6.0987 15.4007L6.27636 15.133L6.14078 15.0427L6.0069 14.9535ZM6.45661 14.8614L6.45733 14.8619L6.46283 14.8655L6.29838 15.1152L6.29354 15.1119L6.4023 14.9448L6.4023 14.9448L6.45661 14.8614ZM6.45661 14.8614C6.45641 14.8613 6.4562 14.8611 6.456 14.861C6.40311 14.8267 6.34402 14.8097 6.28533 14.8084C6.18707 14.8063 6.08994 14.8487 6.02501 14.9289L6.28533 15.1063L6.29137 15.1104L6.29583 15.1037L6.29584 15.1036L6.45661 14.8614ZM7.24482 15.7689C7.24485 15.7688 7.24489 15.7688 7.24492 15.7687L7.50103 15.9379L7.4999 15.9398L7.46452 15.9164L7.24482 15.7689ZM7.24482 15.7689C7.24444 15.7694 7.24407 15.77 7.2437 15.7705L7.40925 15.8799L7.24482 15.7689ZM7.70345 15.6848C7.7036 15.6849 7.70375 15.685 7.7039 15.6851C7.84914 15.7827 7.89084 15.9769 7.79853 16.1244L7.54117 15.9565L7.69835 15.6934L7.70345 15.6848ZM7.70345 15.6848L7.69533 15.68C7.69495 15.6797 7.69456 15.6795 7.69418 15.6792L7.52243 15.9359L7.51855 15.9417L7.52071 15.9431L7.52243 15.9442L7.52728 15.9474L7.52762 15.9476L7.60061 15.8385L7.60294 15.8351L7.60294 15.8351L7.70345 15.6848ZM7.33411 16.2174L7.43672 16.064L7.50992 15.9546L7.51211 15.9561L7.51856 15.9604L7.51893 15.9606L7.34338 16.223C7.34299 16.2227 7.34261 16.2225 7.34222 16.2222L7.3374 16.2193L7.33411 16.2174ZM7.33411 16.2174L7.49642 15.9456L7.24064 15.7753C7.14615 15.9232 7.18767 16.1194 7.33411 16.2174ZM6.28419 15.1367L6.27942 15.1335L6.2796 15.1333L6.28061 15.1317L6.28528 15.1245L6.28533 15.1245L6.28686 15.1221L6.29167 15.1253L6.29008 15.1278L6.2854 15.1349L6.28533 15.135L6.28439 15.1364L6.28419 15.1367ZM6.46464 14.8667C6.60809 14.9619 6.65144 15.1513 6.56645 15.2978L6.29935 15.1158L6.46464 14.8667ZM6.29261 15.126L6.29261 15.126L6.56129 15.3064C6.56114 15.3066 6.561 15.3068 6.56086 15.3071C6.56049 15.3077 6.56012 15.3083 6.55974 15.3088C6.55867 15.3105 6.55757 15.3122 6.55646 15.3139C6.55606 15.3145 6.55565 15.3151 6.55525 15.3158L6.28533 15.1374L6.28509 15.1373L6.2853 15.137L6.28533 15.1369L6.28631 15.1355L6.29101 15.1284L6.29261 15.126ZM7.51373 15.9489L7.51494 15.9471L7.51711 15.9485L7.52243 15.952L7.52363 15.9528L7.52398 15.9531L7.52276 15.9549L7.52243 15.9547L7.52241 15.9546L7.5159 15.9504L7.51373 15.9489ZM7.53664 15.964L7.53776 15.9622L7.5442 15.9664L7.78458 16.1278L7.53664 15.964ZM7.78844 16.1304L7.66194 16.0442L7.794 16.1314C7.7936 16.132 7.79319 16.1327 7.79279 16.1333L7.78844 16.1304ZM7.52243 15.6259C7.57126 15.6269 7.62027 15.6388 7.66557 15.6624L7.52243 15.9021L7.5043 15.9324L7.35227 15.8332L7.24899 15.7628C7.31348 15.6718 7.41752 15.6236 7.52243 15.6259ZM7.78814 16.1399C7.72454 16.2287 7.62464 16.2772 7.52243 16.2772C7.47086 16.2772 7.41928 16.2651 7.37181 16.2399L7.52243 15.9878L7.53307 15.97L7.78814 16.1399Z" fill="#24B23E" stroke="#24B23E" stroke-width="5"/>
<path d="M8.98914 16.5407C8.97152 16.5228 8.95245 16.5074 8.93226 16.4945L8.76288 16.7547L8.75761 16.7628L8.7599 16.7651L8.7605 16.7646L8.98914 16.5407ZM8.98914 16.5407C9.09875 16.6526 9.111 16.823 9.0259 16.9471C9.02564 16.9475 9.02537 16.9479 9.02511 16.9483C9.01333 16.9653 8.99972 16.9815 8.98427 16.9965M8.98914 16.5407L8.76072 16.766L8.78127 16.7872L8.78373 16.7897L8.98427 16.9965M8.57758 17.0393L8.74622 16.7803L8.75292 16.7737L8.75379 16.7728L8.75548 16.7711L8.75599 16.7706L8.75998 16.7667L8.76068 16.766L8.78109 16.7871L8.78355 16.7896L8.98427 16.9965M8.57758 17.0393L8.73406 16.7923L8.52584 16.9976C8.54136 17.013 8.55863 17.0269 8.57758 17.0393ZM8.57758 17.0393C8.60807 17.0586 8.64093 17.0724 8.67481 17.0807C8.67772 17.0815 8.68064 17.0821 8.68357 17.0828C8.70641 17.0877 8.72967 17.0902 8.75292 17.0902C8.83734 17.0902 8.92095 17.0579 8.98427 16.9965M8.48099 16.5908C8.49582 16.5681 8.51297 16.5479 8.5319 16.5302L8.75292 16.758L8.75464 16.7598L8.75292 16.7625L8.75018 16.7668L8.74981 16.7674L8.73711 16.7875L8.52416 16.996C8.41818 16.8898 8.39561 16.7207 8.48099 16.5908ZM8.75467 16.7597L8.75292 16.7579L8.53198 16.5302C8.59277 16.4735 8.67204 16.4434 8.75292 16.4431C8.78056 16.443 8.80838 16.4464 8.83572 16.4534C8.86712 16.461 8.89728 16.4733 8.92538 16.4903L8.76598 16.7419L8.75883 16.7532L8.75467 16.7597ZM8.75555 16.7659L8.75758 16.7628L8.75986 16.7652L8.75497 16.77L8.75446 16.7705L8.75437 16.7706L8.75292 16.772L8.74935 16.7755L8.75292 16.77L8.75316 16.7696L8.75354 16.769L8.75555 16.7659Z" fill="#24B23E" stroke="#24B23E" stroke-width="5"/>
<mask id="path-9-inside-3_1_3095" fill="white">
<path d="M16.1059 9.91763C16.0215 9.91763 15.9371 9.8853 15.8746 9.82146C15.7496 9.69379 15.7496 9.49177 15.8778 9.36732L15.8835 9.36166C16.0118 9.23722 16.2179 9.23964 16.343 9.36813C16.468 9.49581 16.4647 9.70106 16.3365 9.8255C16.2723 9.88692 16.1887 9.91763 16.1059 9.91763ZM15.1862 10.8138C15.1026 10.8138 15.019 10.7823 14.9565 10.7184C14.8307 10.5916 14.8291 10.3895 14.9565 10.2643L14.9622 10.2586C15.0896 10.1334 15.295 10.135 15.4216 10.2619C15.5474 10.3887 15.5458 10.5932 15.4184 10.7192C15.3551 10.7823 15.2706 10.8138 15.1862 10.8138ZM14.2673 11.7108C14.1837 11.7108 14.1001 11.6792 14.0376 11.6154C13.9118 11.4885 13.9102 11.2865 14.0376 11.1613L14.0433 11.1556C14.1707 11.0304 14.3761 11.0312 14.5027 11.1588C14.6286 11.2857 14.6269 11.4902 14.4995 11.6162C14.4362 11.6792 14.3517 11.7108 14.2673 11.7108ZM13.3484 12.6069C13.264 12.6069 13.1796 12.5746 13.1171 12.51C12.9921 12.3823 12.9921 12.1803 13.1203 12.0558L13.126 12.0502C13.2543 11.9257 13.4596 11.9281 13.5855 12.0566C13.7105 12.1843 13.7072 12.3895 13.579 12.514C13.5156 12.5762 13.432 12.6069 13.3484 12.6069ZM12.4295 13.5039C12.3459 13.5039 12.2623 13.4724 12.1998 13.4093C12.074 13.2825 12.0724 13.0805 12.1998 12.9552L12.2055 12.9495C12.3329 12.8243 12.5383 12.8251 12.6649 12.9528C12.7908 13.0796 12.7891 13.2849 12.6617 13.4102C12.5984 13.4716 12.514 13.5039 12.4295 13.5039ZM11.5106 14.4001C11.427 14.4001 11.3434 14.3685 11.2809 14.3047C11.1551 14.1778 11.1535 13.9758 11.2809 13.8506L11.2866 13.8449C11.414 13.7196 11.6194 13.7213 11.746 13.8481C11.8719 13.975 11.8702 14.1794 11.7428 14.3055C11.6795 14.3685 11.5951 14.4001 11.5106 14.4001ZM10.5917 15.297C10.5073 15.297 10.4229 15.2647 10.3604 15.2009C10.2354 15.0732 10.2354 14.8712 10.3636 14.7467L10.3693 14.7411C10.4976 14.6166 10.7029 14.6199 10.8288 14.7475C10.9538 14.8752 10.9505 15.0805 10.8223 15.2049C10.759 15.2655 10.6753 15.297 10.5917 15.297ZM9.67284 16.1932C9.58923 16.1932 9.50562 16.1617 9.44312 16.0978C9.3173 15.971 9.31568 15.7689 9.44312 15.6437L9.4488 15.638C9.57625 15.5128 9.78243 15.5144 9.90825 15.6413C10.0341 15.7681 10.0324 15.9734 9.905 16.0986C9.84087 16.1617 9.75727 16.1932 9.67284 16.1932Z"/>
</mask>
<path d="M16.1059 9.91763C16.0215 9.91763 15.9371 9.8853 15.8746 9.82146C15.7496 9.69379 15.7496 9.49177 15.8778 9.36732L15.8835 9.36166C16.0118 9.23722 16.2179 9.23964 16.343 9.36813C16.468 9.49581 16.4647 9.70106 16.3365 9.8255C16.2723 9.88692 16.1887 9.91763 16.1059 9.91763ZM15.1862 10.8138C15.1026 10.8138 15.019 10.7823 14.9565 10.7184C14.8307 10.5916 14.8291 10.3895 14.9565 10.2643L14.9622 10.2586C15.0896 10.1334 15.295 10.135 15.4216 10.2619C15.5474 10.3887 15.5458 10.5932 15.4184 10.7192C15.3551 10.7823 15.2706 10.8138 15.1862 10.8138ZM14.2673 11.7108C14.1837 11.7108 14.1001 11.6792 14.0376 11.6154C13.9118 11.4885 13.9102 11.2865 14.0376 11.1613L14.0433 11.1556C14.1707 11.0304 14.3761 11.0312 14.5027 11.1588C14.6286 11.2857 14.6269 11.4902 14.4995 11.6162C14.4362 11.6792 14.3517 11.7108 14.2673 11.7108ZM13.3484 12.6069C13.264 12.6069 13.1796 12.5746 13.1171 12.51C12.9921 12.3823 12.9921 12.1803 13.1203 12.0558L13.126 12.0502C13.2543 11.9257 13.4596 11.9281 13.5855 12.0566C13.7105 12.1843 13.7072 12.3895 13.579 12.514C13.5156 12.5762 13.432 12.6069 13.3484 12.6069ZM12.4295 13.5039C12.3459 13.5039 12.2623 13.4724 12.1998 13.4093C12.074 13.2825 12.0724 13.0805 12.1998 12.9552L12.2055 12.9495C12.3329 12.8243 12.5383 12.8251 12.6649 12.9528C12.7908 13.0796 12.7891 13.2849 12.6617 13.4102C12.5984 13.4716 12.514 13.5039 12.4295 13.5039ZM11.5106 14.4001C11.427 14.4001 11.3434 14.3685 11.2809 14.3047C11.1551 14.1778 11.1535 13.9758 11.2809 13.8506L11.2866 13.8449C11.414 13.7196 11.6194 13.7213 11.746 13.8481C11.8719 13.975 11.8702 14.1794 11.7428 14.3055C11.6795 14.3685 11.5951 14.4001 11.5106 14.4001ZM10.5917 15.297C10.5073 15.297 10.4229 15.2647 10.3604 15.2009C10.2354 15.0732 10.2354 14.8712 10.3636 14.7467L10.3693 14.7411C10.4976 14.6166 10.7029 14.6199 10.8288 14.7475C10.9538 14.8752 10.9505 15.0805 10.8223 15.2049C10.759 15.2655 10.6753 15.297 10.5917 15.297ZM9.67284 16.1932C9.58923 16.1932 9.50562 16.1617 9.44312 16.0978C9.3173 15.971 9.31568 15.7689 9.44312 15.6437L9.4488 15.638C9.57625 15.5128 9.78243 15.5144 9.90825 15.6413C10.0341 15.7681 10.0324 15.9734 9.905 16.0986C9.84087 16.1617 9.75727 16.1932 9.67284 16.1932Z" fill="#24B23E"/>
<path d="M15.8778 9.36732L19.3596 12.9558L19.3827 12.9334L19.4055 12.9107L15.8778 9.36732ZM15.8835 9.36166L12.4017 5.77322L12.3786 5.79563L12.3558 5.81834L15.8835 9.36166ZM16.343 9.36813L12.7593 12.8549L12.7648 12.8605L12.7703 12.8661L16.343 9.36813ZM16.3365 9.8255L19.7948 13.4366L19.8066 13.4253L19.8183 13.414L16.3365 9.8255ZM14.9565 10.7184L18.5292 7.22043L18.518 7.20898L18.5067 7.1976L14.9565 10.7184ZM14.9565 10.2643L18.4612 13.8304L18.4726 13.8192L18.4838 13.808L14.9565 10.2643ZM14.9622 10.2586L11.4574 6.69257L11.4461 6.70371L11.4348 6.71492L14.9622 10.2586ZM15.4216 10.2619L18.9718 6.74103L18.9661 6.73532L18.9605 6.72963L15.4216 10.2619ZM15.4184 10.7192L11.9022 7.16447L11.8965 7.17008L11.8909 7.17572L15.4184 10.7192ZM14.0376 11.6154L17.6103 8.1174L17.5991 8.10595L17.5878 8.09457L14.0376 11.6154ZM14.0376 11.1613L17.5423 14.7273L17.5536 14.7163L17.5647 14.7052L14.0376 11.1613ZM14.0433 11.1556L10.5385 7.58955L10.5273 7.60059L10.5161 7.6117L14.0433 11.1556ZM14.5027 11.1588L18.0529 7.638L18.0528 7.63786L14.5027 11.1588ZM14.4995 11.6162L10.9833 8.06144L10.9776 8.06706L10.972 8.07269L14.4995 11.6162ZM13.1171 12.51L16.7117 9.03447L16.7007 9.02317L16.6897 9.01194L13.1171 12.51ZM13.1203 12.0558L16.6021 15.6443L16.6253 15.6218L16.6482 15.5989L13.1203 12.0558ZM13.126 12.0502L9.64419 8.4617L9.621 8.48421L9.5981 8.50701L13.126 12.0502ZM13.5855 12.0566L17.1581 8.55861L17.1578 8.55832L13.5855 12.0566ZM13.579 12.514L10.0971 8.92554L10.0857 8.93663L10.0744 8.94779L13.579 12.514ZM12.1998 13.4093L15.7501 9.88866L15.75 9.88851L12.1998 13.4093ZM12.1998 12.9552L15.7045 16.5213L15.716 16.51L15.7273 16.4987L12.1998 12.9552ZM12.2055 12.9495L8.70075 9.38349L8.68932 9.39472L8.67796 9.40603L12.2055 12.9495ZM12.6649 12.9528L16.2151 9.43194L16.215 9.4318L12.6649 12.9528ZM12.6617 13.4102L16.1429 16.9992L16.1547 16.9877L16.1664 16.9762L12.6617 13.4102ZM11.2809 14.3047L14.8536 10.8067L14.8424 10.7952L14.8311 10.7839L11.2809 14.3047ZM11.2809 13.8506L14.7857 17.4166L14.7971 17.4054L14.8084 17.3941L11.2809 13.8506ZM11.2866 13.8449L7.78185 10.2788L7.77042 10.2901L7.75907 10.3014L11.2866 13.8449ZM11.746 13.8481L15.2962 10.3273L15.2906 10.3216L15.2849 10.3159L11.746 13.8481ZM11.7428 14.3055L8.22661 10.7507L8.22093 10.7564L8.21527 10.762L11.7428 14.3055ZM10.3604 15.2009L13.9331 11.7029L10.3604 15.2009ZM10.3636 14.7467L13.8455 18.3352L13.8686 18.3128L13.8914 18.2901L10.3636 14.7467ZM10.3693 14.7411L6.88751 11.1526L6.86441 11.175L6.8416 11.1977L10.3693 14.7411ZM10.8288 14.7475L14.4014 11.2495L14.3958 11.2437L14.3901 11.238L10.8288 14.7475ZM10.8223 15.2049L14.2797 18.8169L14.2919 18.8052L14.3041 18.7934L10.8223 15.2049ZM9.44312 16.0978L13.0158 12.5998L13.0046 12.5884L12.9933 12.577L9.44312 16.0978ZM9.44312 15.6437L12.9479 19.2098L12.9592 19.1986L12.9705 19.1874L9.44312 15.6437ZM9.4488 15.638L5.94406 12.072L5.93273 12.0831L5.92147 12.0943L9.4488 15.638ZM9.905 16.0986L6.40026 12.5326L6.40012 12.5327L9.905 16.0986ZM16.1059 4.91763C17.2813 4.91763 18.5116 5.36786 19.4472 6.32346L12.3019 13.3195C13.3625 14.4027 14.7617 14.9176 16.1059 14.9176V4.91763ZM19.4472 6.32346C21.2081 8.12188 21.2727 11.0995 19.3596 12.9558L12.396 5.77887C10.2264 7.884 10.2911 11.2657 12.3019 13.3195L19.4472 6.32346ZM19.4055 12.9107L19.4112 12.905L12.3558 5.81834L12.3501 5.82399L19.4055 12.9107ZM19.3653 12.9501C17.5207 14.7399 14.5649 14.7107 12.7593 12.8549L19.9266 5.88141C17.871 3.76859 14.5028 3.73452 12.4017 5.77322L19.3653 12.9501ZM12.7703 12.8661C10.9448 11.0017 11.0075 8.02933 12.8546 6.23705L19.8183 13.414C21.922 11.3728 21.9911 7.98992 19.9156 5.87012L12.7703 12.8661ZM12.8782 6.21439C13.7918 5.33942 14.9667 4.91763 16.1059 4.91763V14.9176C17.4108 14.9176 18.7529 14.4344 19.7948 13.4366L12.8782 6.21439ZM15.1862 5.81379C16.3497 5.81379 17.5851 6.25626 18.5292 7.22043L11.3838 14.2164C12.4529 15.3083 13.8556 15.8138 15.1862 15.8138V5.81379ZM18.5067 7.1976C20.2722 8.97784 20.3692 11.9552 18.4612 13.8304L11.4518 6.69823C9.28892 8.82388 9.38916 12.2053 11.4063 14.2393L18.5067 7.1976ZM18.4838 13.808L18.4895 13.8024L11.4348 6.71492L11.4292 6.72058L18.4838 13.808ZM18.4669 13.8247C16.619 15.6409 13.6797 15.5944 11.8828 13.7941L18.9605 6.72963C16.9102 4.67559 13.5603 4.62592 11.4574 6.69257L18.4669 13.8247ZM11.8715 13.7827C10.034 11.93 10.0817 8.96517 11.9022 7.16447L18.9346 14.274C21.0099 12.2212 21.0609 8.84751 18.9718 6.74103L11.8715 13.7827ZM11.8909 7.17572C12.828 6.24275 14.0408 5.81379 15.1862 5.81379V15.8138C16.5004 15.8138 17.8821 15.3218 18.9459 14.2628L11.8909 7.17572ZM14.2673 6.71076C15.4307 6.71076 16.6662 7.1532 17.6103 8.1174L10.4649 15.1134C11.534 16.2053 12.9367 16.7108 14.2673 16.7108V6.71076ZM17.5878 8.09457C19.3533 9.87481 19.4503 12.8522 17.5423 14.7273L10.5329 7.5952C8.37002 9.72085 8.47026 13.1023 10.4874 15.1362L17.5878 8.09457ZM17.5647 14.7052L17.5704 14.6995L10.5161 7.6117L10.5105 7.61736L17.5647 14.7052ZM17.548 14.7217C15.7144 16.5237 12.7665 16.5085 10.9527 14.6798L18.0528 7.63786C15.9857 5.55378 12.627 5.53699 10.5385 7.58955L17.548 14.7217ZM10.9526 14.6797C9.1151 12.8269 9.16286 9.86212 10.9833 8.06144L18.0157 15.171C20.091 13.1182 20.142 9.74451 18.0529 7.638L10.9526 14.6797ZM10.972 8.07269C11.9092 7.13969 13.122 6.71076 14.2673 6.71076V16.7108C15.5815 16.7108 16.9631 16.2188 18.027 15.1597L10.972 8.07269ZM13.3484 7.60692C14.5275 7.60692 15.7702 8.06069 16.7117 9.03447L9.52249 15.9854C10.589 17.0885 12.0005 17.6069 13.3484 17.6069V7.60692ZM16.6897 9.01194C18.4506 10.8104 18.5152 13.788 16.6021 15.6443L9.63851 8.46736C7.46891 10.5725 7.53355 13.9542 9.54441 16.008L16.6897 9.01194ZM16.6482 15.5989L16.6539 15.5933L9.5981 8.50701L9.59241 8.51267L16.6482 15.5989ZM16.6078 15.6386C14.7567 17.4347 11.8091 17.389 10.0131 15.5549L17.1578 8.55832C15.1101 6.46726 11.7518 6.41669 9.64419 8.4617L16.6078 15.6386ZM10.0128 15.5546C8.18731 13.6902 8.24998 10.7178 10.0971 8.92554L17.0608 16.1024C19.1645 14.0613 19.2336 10.6784 17.1581 8.55861L10.0128 15.5546ZM10.0744 8.94779C11.0138 8.02457 12.2191 7.60692 13.3484 7.60692V17.6069C14.6449 17.6069 16.0175 17.1279 17.0836 16.0802L10.0744 8.94779ZM12.4295 8.50389C13.5892 8.50389 14.8122 8.94284 15.7501 9.88866L8.64949 16.93C9.71243 18.0019 11.1026 18.5039 12.4295 18.5039V8.50389ZM15.75 9.88851C17.5155 11.6687 17.6125 14.6461 15.7045 16.5213L8.69507 9.38914C6.53223 11.5148 6.63247 14.8962 8.64964 16.9302L15.75 9.88851ZM15.7273 16.4987L15.733 16.4931L8.67796 9.40603L8.67228 9.41168L15.7273 16.4987ZM15.7102 16.5156C13.8767 18.3177 10.9287 18.3025 9.11491 16.4738L16.215 9.4318C14.1479 7.34772 10.7892 7.33093 8.70075 9.38349L15.7102 16.5156ZM9.11477 16.4736C7.2836 14.6272 7.31496 11.6544 9.15695 9.84409L16.1664 16.9762C18.2633 14.9154 18.2979 11.5321 16.2151 9.43194L9.11477 16.4736ZM9.18047 9.82113C10.0815 8.9472 11.2587 8.50389 12.4295 8.50389V18.5039C13.7692 18.5039 15.1153 17.9959 16.1429 16.9992L9.18047 9.82113ZM11.5106 9.40005C12.674 9.40005 13.9095 9.84249 14.8536 10.8067L7.70825 17.8027C8.77731 18.8946 10.18 19.4001 11.5106 19.4001V9.40005ZM14.8311 10.7839C16.5966 12.5641 16.6936 15.5415 14.7857 17.4166L7.77617 10.2845C5.61333 12.4101 5.71357 15.7916 7.73074 17.8255L14.8311 10.7839ZM14.8084 17.3941L14.8141 17.3884L7.75907 10.3014L7.75338 10.307L14.8084 17.3941ZM14.7913 17.411C12.9434 19.2271 10.0042 19.1807 8.20721 17.3804L15.2849 10.3159C13.2346 8.26184 9.88466 8.21219 7.78185 10.2788L14.7913 17.411ZM8.19587 17.369C6.35844 15.5162 6.40614 12.5514 8.22661 10.7507L15.259 17.8603C17.3343 15.8075 17.3853 12.4338 15.2962 10.3273L8.19587 17.369ZM8.21527 10.762C9.1525 9.82899 10.3653 9.40005 11.5106 9.40005V19.4001C12.8248 19.4001 14.2065 18.9081 15.2703 17.849L8.21527 10.762ZM10.5917 10.297C11.7671 10.297 12.9974 10.7473 13.9331 11.7029L6.78773 18.6989C7.84835 19.7821 9.24753 20.297 10.5917 20.297V10.297ZM13.9331 11.7029C15.6939 13.5013 15.7586 16.4789 13.8455 18.3352L6.88182 11.1583C4.71221 13.2634 4.77688 16.6451 6.78773 18.6989L13.9331 11.7029ZM13.8914 18.2901L13.897 18.2844L6.8416 11.1977L6.83592 11.2034L13.8914 18.2901ZM13.8511 18.3295C11.9856 20.1396 9.04692 20.0628 7.26744 18.2571L14.3901 11.238C12.359 9.17689 9.00951 9.09367 6.88751 11.1526L13.8511 18.3295ZM7.2561 18.2455C5.43064 16.3811 5.49327 13.4088 7.34046 11.6165L14.3041 18.7934C16.4078 16.7522 16.4769 13.3693 14.4014 11.2495L7.2561 18.2455ZM7.36489 11.5929C8.2673 10.7291 9.43654 10.297 10.5917 10.297V20.297C11.9142 20.297 13.2506 19.8019 14.2797 18.8169L7.36489 11.5929ZM9.67284 11.1932C10.8362 11.1932 12.0717 11.6356 13.0158 12.5998L5.87045 19.5958C6.93951 20.6877 8.34224 21.1932 9.67284 21.1932V11.1932ZM12.9933 12.577C14.7588 14.3572 14.8558 17.3346 12.9479 19.2098L5.93838 12.0776C3.77554 14.2033 3.87578 17.5847 5.89295 19.6187L12.9933 12.577ZM12.9705 19.1874L12.9761 19.1817L5.92147 12.0943L5.91579 12.1L12.9705 19.1874ZM12.9535 19.2041C11.112 21.014 8.16477 20.9838 6.35808 19.1621L13.4584 12.1204C11.4001 10.045 8.04054 10.0115 5.94406 12.072L12.9535 19.2041ZM6.35808 19.1621C4.52692 17.3157 4.55826 14.3429 6.40026 12.5326L13.4097 19.6647C15.5066 17.6039 15.5412 14.2206 13.4584 12.1204L6.35808 19.1621ZM6.40012 12.5327C7.31454 11.634 8.50837 11.1932 9.67284 11.1932V21.1932C11.0062 21.1932 12.3672 20.6894 13.4099 19.6646L6.40012 12.5327Z" fill="#24B23E" mask="url(#path-9-inside-3_1_3095)"/>
<path d="M16.795 8.92927C16.6684 8.80321 16.6668 8.59957 16.7934 8.47351L16.7958 8.47028M16.795 8.92927C16.7956 8.92982 16.7961 8.93037 16.7967 8.93092C16.8598 8.99205 16.9419 9.02301 17.0239 9.02301C17.1054 9.02301 17.1869 8.99309 17.2503 8.9325C17.2513 8.93158 17.2522 8.93065 17.2532 8.92971L17.0255 8.70104L17.0239 8.69941L17.0239 8.69936L17.021 8.7022L16.795 8.92927ZM16.795 8.92927L17.0196 8.70074L17.0224 8.69788L16.816 8.49054L16.7958 8.47028M16.7958 8.47028L16.8124 8.48274L16.8124 8.48274L16.8124 8.48275L16.8124 8.48275L17.0239 8.64212L17.0545 8.66518L17.2506 8.4657C17.1875 8.40532 17.1056 8.37533 17.0239 8.37574C16.9422 8.37614 16.8605 8.40697 16.7979 8.46822C16.7979 8.46822 16.7979 8.46822 16.7979 8.46822C16.7972 8.4689 16.7965 8.46959 16.7958 8.47028ZM17.0565 8.66663L17.2536 8.46861C17.2541 8.46917 17.2547 8.46972 17.2553 8.47028C17.3603 8.57481 17.3782 8.7338 17.3091 8.85693L17.0584 8.66807L17.0565 8.66663ZM16.8325 8.50301L16.8325 8.50301L16.8325 8.50301Z" fill="#24B23E" stroke="#24B23E" stroke-width="5"/>
<mask id="path-12-inside-4_1_3095" fill="white">
<path d="M17.664 10.9003C17.6429 10.9003 17.6218 10.8978 17.6007 10.8938C17.4245 10.8591 17.3109 10.6886 17.3458 10.514L17.8791 7.84492L15.0899 8.1035C14.9106 8.11966 14.7531 7.98956 14.7368 7.81179C14.7198 7.63401 14.8513 7.47643 15.0299 7.46027L18.2525 7.16209C18.354 7.15239 18.4554 7.19199 18.5236 7.26795C18.5926 7.34391 18.621 7.44734 18.6007 7.54754L17.9822 10.6417C17.9514 10.7936 17.8158 10.9003 17.664 10.9003Z"/>
</mask>
<path d="M17.664 10.9003C17.6429 10.9003 17.6218 10.8978 17.6007 10.8938C17.4245 10.8591 17.3109 10.6886 17.3458 10.514L17.8791 7.84492L15.0899 8.1035C14.9106 8.11966 14.7531 7.98956 14.7368 7.81179C14.7198 7.63401 14.8513 7.47643 15.0299 7.46027L18.2525 7.16209C18.354 7.15239 18.4554 7.19199 18.5236 7.26795C18.5926 7.34391 18.621 7.44734 18.6007 7.54754L17.9822 10.6417C17.9514 10.7936 17.8158 10.9003 17.664 10.9003Z" fill="#24B23E"/>
<path d="M17.6007 10.8938L16.633 15.7993L16.6468 15.802L16.6606 15.8046L17.6007 10.8938ZM17.3458 10.514L22.2487 11.4945L22.2489 11.4937L17.3458 10.514ZM17.8791 7.84492L22.7822 8.82461L24.0965 2.24706L17.4175 2.86627L17.8791 7.84492ZM15.0899 8.1035L15.5386 13.0834L15.5515 13.0822L15.0899 8.1035ZM14.7368 7.81179L19.7161 7.35707L19.7151 7.3458L19.714 7.33454L14.7368 7.81179ZM15.0299 7.46027L15.4805 12.4399L15.4905 12.439L15.0299 7.46027ZM18.2525 7.16209L18.7132 12.1408L18.7207 12.1401L18.7282 12.1394L18.2525 7.16209ZM18.5236 7.26795L14.8029 10.608L14.8127 10.6189L14.8226 10.6298L18.5236 7.26795ZM18.6007 7.54754L13.7002 6.55505L13.6978 6.56739L18.6007 7.54754ZM17.9822 10.6417L22.8822 11.6366L22.8837 11.6292L22.8852 11.6218L17.9822 10.6417ZM17.664 5.90027C18.0238 5.90027 18.3237 5.94143 18.5408 5.98299L16.6606 15.8046C16.9199 15.8543 17.262 15.9003 17.664 15.9003V5.90027ZM18.5683 5.98834C21.0993 6.48761 22.7577 8.94913 22.2487 11.4945L12.4429 9.53354C11.864 12.428 13.7497 15.2305 16.633 15.7993L18.5683 5.98834ZM22.2489 11.4937L22.7822 8.82461L12.976 6.86522L12.4427 9.53432L22.2489 11.4937ZM17.4175 2.86627L14.6284 3.12485L15.5515 13.0822L18.3407 12.8236L17.4175 2.86627ZM14.6413 3.12367C17.1679 2.89606 19.4776 4.74547 19.7161 7.35707L9.75756 8.2665C10.0285 11.2337 12.6532 13.3433 15.5386 13.0833L14.6413 3.12367ZM19.714 7.33454C19.9639 9.94051 18.0379 12.2085 15.4805 12.4399L14.5792 2.48062C11.6647 2.74438 9.47569 5.3275 9.75967 8.28903L19.714 7.33454ZM15.4905 12.439L18.7132 12.1408L17.7918 2.18335L14.5692 2.48154L15.4905 12.439ZM18.7282 12.1394C17.2488 12.2808 15.7935 11.7116 14.8029 10.608L22.2444 3.92792C21.1174 2.67241 19.4591 2.02399 17.7768 2.18476L18.7282 12.1394ZM14.8226 10.6298C13.8218 9.52812 13.4046 8.01478 13.7002 6.55506L23.5013 8.54003C23.8375 6.8799 23.3634 5.1597 22.2247 3.90607L14.8226 10.6298ZM13.6978 6.56739L13.0792 9.66153L22.8852 11.6218L23.5037 8.5277L13.6978 6.56739ZM13.0822 9.64677C13.5373 7.40539 15.5027 5.90027 17.664 5.90027V15.9003C20.1289 15.9003 22.3654 14.1818 22.8822 11.6366L13.0822 9.64677Z" fill="#24B23E" mask="url(#path-12-inside-4_1_3095)"/>
<path d="M8.396 4.89617C8.45559 4.89318 8.51364 4.90618 8.56461 4.93309C8.58362 4.94312 8.60164 4.95508 8.6184 4.96887C8.62955 4.97805 8.64014 4.98804 8.65008 4.9988L8.91146 5.27772L9.95173 6.38778L9.95223 6.38832L11.5096 8.05023L10.1738 7.03664L10.0954 6.97716L8.43902 5.72042L8.43812 5.72126L8.43804 5.71967L8.41347 5.23836L8.4126 5.22134L8.4132 5.23872L8.43731 5.71911L8.43745 5.72189L7.07474 6.99884L6.85737 7.20253L5.62345 8.35879L6.99901 6.54605L7.05521 6.47199L7.92277 5.32871L8.1541 5.02385C8.1734 4.99842 8.19624 4.97625 8.22165 4.95783C8.22889 4.95258 8.23634 4.94764 8.24397 4.94301C8.2896 4.91535 8.34188 4.89894 8.396 4.89617ZM8.396 4.89617L8.40745 5.12037L8.396 4.89617ZM8.41245 5.2183L8.41253 5.21993L8.41245 5.2183ZM8.41245 5.2183L8.40948 5.16025L8.41245 5.2183Z" fill="#24B23E" stroke="#24B23E" stroke-width="90"/>
<mask id="path-15-inside-5_1_3095" fill="white">
<path d="M8.41308 5.54101C8.23368 5.54101 8.08838 5.39637 8.08838 5.21778V0.323233C8.08838 0.144647 8.23368 0 8.41308 0C8.59247 0 8.73778 0.144647 8.73778 0.323233V5.21778C8.73778 5.39637 8.59247 5.54101 8.41308 5.54101Z"/>
</mask>
<path d="M8.41308 5.54101C8.23368 5.54101 8.08838 5.39637 8.08838 5.21778V0.323233C8.08838 0.144647 8.23368 0 8.41308 0C8.59247 0 8.73778 0.144647 8.73778 0.323233V5.21778C8.73778 5.39637 8.59247 5.54101 8.41308 5.54101Z" fill="#24B23E"/>
<path d="M8.41308 0.541015C10.9738 0.541015 13.0884 2.61364 13.0884 5.21778H3.08838C3.08838 8.17909 5.49361 10.541 8.41308 10.541V0.541015ZM13.0884 5.21778V0.323233H3.08838V5.21778H13.0884ZM13.0884 0.323233C13.0884 2.92737 10.9738 5 8.41308 5V-5C5.49361 -5 3.08838 -2.63808 3.08838 0.323233H13.0884ZM8.41308 5C5.8524 5 3.73778 2.92737 3.73778 0.323233H13.7378C13.7378 -2.63808 11.3325 -5 8.41308 -5V5ZM3.73778 0.323233V5.21778H13.7378V0.323233H3.73778ZM3.73778 5.21778C3.73778 2.61364 5.8524 0.541015 8.41308 0.541015V10.541C11.3325 10.541 13.7378 8.17909 13.7378 5.21778H3.73778Z" fill="#24B23E" mask="url(#path-15-inside-5_1_3095)"/>
<mask id="path-17-inside-6_1_3095" fill="white">
<path d="M8.41312 3.89169C8.26457 3.89169 8.13144 3.78987 8.09653 3.64038C8.05676 3.46664 8.16634 3.2929 8.34087 3.2533L11.5716 2.5228L8.28567 1.12401C8.12089 1.05371 8.04458 0.863807 8.11439 0.699766C8.18502 0.535726 8.37578 0.458958 8.54056 0.529261L12.747 2.31997C12.8769 2.37492 12.9556 2.50664 12.9427 2.64644C12.9297 2.78623 12.8282 2.90098 12.691 2.9325L8.48455 3.88361C8.46101 3.88926 8.43666 3.89169 8.41312 3.89169Z"/>
</mask>
<path d="M8.41312 3.89169C8.26457 3.89169 8.13144 3.78987 8.09653 3.64038C8.05676 3.46664 8.16634 3.2929 8.34087 3.2533L11.5716 2.5228L8.28567 1.12401C8.12089 1.05371 8.04458 0.863807 8.11439 0.699766C8.18502 0.535726 8.37578 0.458958 8.54056 0.529261L12.747 2.31997C12.8769 2.37492 12.9556 2.50664 12.9427 2.64644C12.9297 2.78623 12.8282 2.90098 12.691 2.9325L8.48455 3.88361C8.46101 3.88926 8.43666 3.89169 8.41312 3.89169Z" fill="#24B23E"/>
<path d="M8.09653 3.64038L3.22263 4.75621L3.22504 4.76672L3.22749 4.77723L8.09653 3.64038ZM8.34087 3.2533L7.23816 -1.62358L7.23459 -1.62278L8.34087 3.2533ZM11.5716 2.5228L12.6743 7.39968L27.7735 3.9856L13.53 -2.07772L11.5716 2.5228ZM8.28567 1.12401L6.32359 5.72295L6.32729 5.72452L8.28567 1.12401ZM8.11439 0.699766L3.52191 -1.27737L3.51777 -1.26776L3.51368 -1.25814L8.11439 0.699766ZM8.54056 0.529261L6.57848 5.1282L6.58211 5.12975L8.54056 0.529261ZM12.747 2.31997L10.7886 6.92047L10.7988 6.9248L12.747 2.31997ZM12.691 2.9325L13.7937 7.80939L13.8021 7.80749L13.8105 7.80556L12.691 2.9325ZM8.48455 3.88361L7.38185 -0.993282L7.34905 -0.985865L7.31635 -0.978009L8.48455 3.88361ZM8.41312 -1.10831C10.5451 -1.10831 12.4625 0.348869 12.9656 2.50352L3.22749 4.77723C3.80039 7.23087 5.98404 8.89169 8.41312 8.89169V-1.10831ZM12.9704 2.52454C13.5512 5.06149 11.9541 7.5606 9.44715 8.12938L7.23459 -1.62278C4.37856 -0.974803 2.56227 1.87178 3.22263 4.75621L12.9704 2.52454ZM9.44359 8.13019L12.6743 7.39968L10.4689 -2.35409L7.23816 -1.62358L9.44359 8.13019ZM13.53 -2.07772L10.2441 -3.4765L6.32729 5.72452L9.61323 7.12331L13.53 -2.07772ZM10.2477 -3.47493C12.616 -2.46457 13.7282 0.277137 12.7151 2.65768L3.51368 -1.25814C2.36098 1.45048 3.62582 4.57198 6.32359 5.72295L10.2477 -3.47493ZM12.7069 2.6769C11.6907 5.03726 8.95383 6.14161 6.57848 5.1282L10.5026 -4.06968C7.79772 -5.2237 4.67932 -3.96581 3.52191 -1.27737L12.7069 2.6769ZM6.58211 5.12975L10.7886 6.92046L14.7055 -2.28052L10.499 -4.07123L6.58211 5.12975ZM10.7988 6.9248C8.92718 6.13295 7.77513 4.21789 7.9641 2.1839L17.9212 3.10897C18.1362 0.79538 16.8266 -1.38311 14.6952 -2.28486L10.7988 6.9248ZM7.9641 2.1839C8.15334 0.146916 9.63263 -1.49515 11.5715 -1.94057L13.8105 7.80556C16.0238 7.29711 17.706 5.42555 17.9212 3.10897L7.9641 2.1839ZM11.5883 -1.94439L7.38185 -0.993282L9.58725 8.7605L13.7937 7.80939L11.5883 -1.94439ZM7.31635 -0.978009C7.72997 -1.0774 8.10354 -1.10831 8.41312 -1.10831V8.89169C8.76977 8.89169 9.19205 8.85592 9.65275 8.74522L7.31635 -0.978009Z" fill="#24B23E" mask="url(#path-17-inside-6_1_3095)"/>
</svg>
