<svg width="88" height="88" viewBox="0 0 88 88" fill="none" xmlns="http://www.w3.org/2000/svg">
<path fill-rule="evenodd" clip-rule="evenodd" d="M46.1999 13.2001C45.3797 13.2001 44.7189 13.8728 44.7335 14.6929L45.3621 49.8929C45.3764 50.6926 46.0287 51.3334 46.8285 51.3334H52.799C53.5988 51.3334 54.2512 50.6926 54.2654 49.8929L54.894 14.6929C54.9087 13.8728 54.2478 13.2001 53.4276 13.2001H46.1999ZM46.9004 61.6001C46.0904 61.6001 45.4337 62.2567 45.4337 63.0667L45.4332 72.6001C45.4332 73.4102 46.0899 74.0669 46.8999 74.0669L52.7478 74.0668C53.5578 74.0668 54.2145 73.4101 54.2145 72.6001V63.0668C54.2145 62.2568 53.5578 61.6001 52.7478 61.6001H46.9004ZM43.2671 14.7191C43.2378 13.0788 44.5594 11.7334 46.1999 11.7334H53.4276C55.0681 11.7334 56.3897 13.0788 56.3604 14.7191L55.7319 49.9191C55.7033 51.5185 54.3986 52.8001 52.799 52.8001H46.8285C45.2289 52.8001 43.9242 51.5185 43.8957 49.9191L43.2671 14.7191ZM43.967 63.0666C43.9671 61.4467 45.2804 60.1334 46.9004 60.1334H52.7478C54.3679 60.1334 55.6812 61.4467 55.6812 63.0668V72.6001C55.6812 74.2202 54.3679 75.5335 52.7478 75.5335L46.8999 75.5335C45.2798 75.5335 43.9665 74.2202 43.9666 72.6001L43.967 63.0666Z" fill="url(#paint0_linear_641_9461)"/>
<path d="M40.3332 11.7334C38.6927 11.7334 37.3711 13.0788 37.4004 14.7191L38.029 49.9191C38.0575 51.5185 39.3622 52.8001 40.9618 52.8001H46.9323C48.5319 52.8001 49.8366 51.5185 49.8652 49.9191L50.4937 14.7191C50.523 13.0788 49.2014 11.7334 47.5609 11.7334H40.3332Z" fill="url(#paint1_linear_641_9461)"/>
<path d="M41.0337 60.1334C39.4137 60.1334 38.1004 61.4467 38.1003 63.0666L38.0999 72.6001C38.0998 74.2202 39.4131 75.5335 41.0332 75.5335L46.8811 75.5335C48.5012 75.5335 49.8145 74.2202 49.8145 72.6001V63.0668C49.8145 61.4467 48.5012 60.1334 46.8811 60.1334H41.0337Z" fill="url(#paint2_linear_641_9461)"/>
<defs>
<linearGradient id="paint0_linear_641_9461" x1="43.2136" y1="5.1334" x2="52.7667" y2="82.9824" gradientUnits="userSpaceOnUse">
<stop stop-color="#FF7FBC"/>
<stop offset="1" stop-color="#FF5045"/>
</linearGradient>
<linearGradient id="paint1_linear_641_9461" x1="37.3469" y1="5.1334" x2="46.9" y2="82.9824" gradientUnits="userSpaceOnUse">
<stop stop-color="#FF7FBC"/>
<stop offset="1" stop-color="#FF5045"/>
</linearGradient>
<linearGradient id="paint2_linear_641_9461" x1="37.3469" y1="5.1334" x2="46.9" y2="82.9824" gradientUnits="userSpaceOnUse">
<stop stop-color="#FF7FBC"/>
<stop offset="1" stop-color="#FF5045"/>
</linearGradient>
</defs>
</svg>
