<svg width="24" height="22" viewBox="0 0 24 22" fill="none" xmlns="http://www.w3.org/2000/svg">
<path d="M8.04297 18.1174C8.23421 17.9262 8.43552 17.6142 9.0495 17.6142C9.66348 17.6142 15.8385 17.6142 16.4576 17.6142C17.0162 17.6142 20.0911 14.5291 20.4837 14.0913C20.8611 13.6686 22.537 11.1522 23 10.0652C22.7081 9.67264 21.918 9.34551 20.9869 9.56192C20.0962 9.76826 19.5728 10.4074 18.9739 11.575L16.6689 12.7727" stroke="#24B23E" stroke-miterlimit="10"/>
<path d="M10.9215 14.5946C10.9215 14.5946 14.9477 14.5946 15.4509 14.5946C17.464 14.5946 17.464 12.0783 15.4509 12.0783C14.9477 12.0783 13.8304 12.0783 12.4313 12.0783C12.0136 12.0783 11.2235 11.0718 10.5592 11.0718C10.2623 11.0718 8.72228 11.0718 8.04287 11.0718C7.36346 11.0718 6.51797 11.6254 6.02981 12.0783C5.27491 12.8332 3.94629 14.0914 3.94629 14.0914" stroke="#24B23E" stroke-miterlimit="10"/>
<path d="M3.01416 13.0815L1 15.0957L6.53716 20.6329L8.55132 18.6187L3.01416 13.0815Z" stroke="#24B23E" stroke-miterlimit="10"/>
<path d="M14.5 4C15.4 4 16 3.42625 16 2.71375V2.28625C16 1.5775 15.4 1 14.5 1C13.6 1 13 1.5775 13 2.28625V2.71375C13 3.42625 13.6 4 14.5 4Z" stroke="#24B23E" stroke-miterlimit="10"/>
<path d="M19.5 5C20.4 5 21 4.42625 21 3.71375V3.28625C21 2.5775 20.4 2 19.5 2C18.6 2 18 2.57375 18 3.28625V3.71375C18 4.42625 18.6 5 19.5 5Z" stroke="#24B23E" stroke-miterlimit="10"/>
<path d="M9.5 5C10.4 5 11 4.42625 11 3.71375V3.28625C11 2.5775 10.4 2 9.5 2C8.6 2 8 2.57375 8 3.28625V3.71375C8 4.42625 8.6 5 9.5 5Z" stroke="#24B23E" stroke-miterlimit="10"/>
<path d="M17.464 10.5685V7.04568C17.464 5.79759 15.4912 5.53589 14.4444 5.53589C13.3976 5.53589 11.4248 5.79759 11.4248 7.04568V10.0653" stroke="#24B23E" stroke-miterlimit="10"/>
<path d="M21.9933 8.55554V8.05228C21.9933 6.80418 20.0205 6.54248 18.9737 6.54248C18.556 6.54248 17.9923 6.58274 17.4639 6.71359" stroke="#24B23E" stroke-miterlimit="10"/>
<path d="M6.89551 10.0653V8.05228C6.89551 6.80418 8.86831 6.54248 9.9151 6.54248C10.3328 6.54248 10.8965 6.58274 11.4249 6.71359" stroke="#24B23E" stroke-miterlimit="10"/>
</svg>
