<svg width="15" height="17" viewBox="0 0 15 17" fill="none" xmlns="http://www.w3.org/2000/svg">
<path fill-rule="evenodd" clip-rule="evenodd" d="M10.6658 3.33333C10.6658 1.49248 9.17328 0 7.33242 0C5.49157 0 3.99909 1.49248 3.99909 3.33333V4C3.99909 5.84086 5.49157 7.33333 7.33242 7.33333L7.48185 7.32987C9.26865 7.24223 10.6658 5.77899 10.6658 4V3.33333ZM5.33242 3.33333C5.33242 2.22886 6.22795 1.33333 7.33242 1.33333C8.4369 1.33333 9.33242 2.22886 9.33242 3.33333V4C9.33242 5.06721 8.49396 5.94537 7.43278 5.99754L7.31608 6.0002C6.22795 6 5.33242 5.10448 5.33242 4V3.33333ZM10.3324 7.99993C10.1225 7.99993 9.92493 8.09873 9.79902 8.2666L7.33236 11.5555L4.86569 8.2666C4.73979 8.09873 4.5422 7.99993 4.33236 7.99993H3.99902C1.78971 7.99993 -0.000976562 9.79087 -0.000976562 11.9999V15.0667C-0.000976562 15.9551 0.71904 16.6667 1.60702 16.6667H13.0577C13.9457 16.6667 14.6657 15.9551 14.6657 15.0667V11.9999C14.6657 9.79087 12.875 7.99993 10.6657 7.99993H10.3324ZM1.33236 11.9999C1.33236 10.5718 2.45488 9.40588 3.86592 9.33653L3.99902 9.33327L6.79902 13.0666C7.06569 13.4222 7.59902 13.4222 7.86569 13.0666L10.6657 9.33327C12.1386 9.33327 13.3324 10.5272 13.3324 11.9999V15.0667C13.3324 15.2152 13.2128 15.3333 13.0577 15.3333H1.60702C1.45192 15.3333 1.33236 15.2152 1.33236 15.0667V11.9999ZM11.3324 14.0059H9.99909C9.6309 14.0059 9.33242 13.7074 9.33242 13.3392C9.33242 12.971 9.6309 12.6725 9.99909 12.6725H11.3324C11.7006 12.6725 11.9991 12.971 11.9991 13.3392C11.9991 13.7074 11.7006 14.0059 11.3324 14.0059Z" fill="url(#paint0_linear_523_1048)"/>
<defs>
<linearGradient id="paint0_linear_523_1048" x1="-0.000976672" y1="16.6667" x2="13.5974" y2="17.497" gradientUnits="userSpaceOnUse">
<stop stop-color="#1DD13B"/>
<stop offset="1" stop-color="#27C6E5"/>
</linearGradient>
</defs>
</svg>
