<svg width="24" height="24" viewBox="0 0 24 24" fill="none" xmlns="http://www.w3.org/2000/svg">
<path d="M21.4759 8.63316C21.0769 8.23115 20.5782 8.03015 20.0795 8.03015H3.92049C3.42176 8.03015 2.92313 8.23115 2.52415 8.63316C2.12516 9.03517 1.92567 9.63819 2.02542 10.2412L3.32216 20.2915C3.42191 21.2965 4.21978 22 5.21724 22H18.7828C19.7802 22 20.5781 21.2965 20.6778 20.2915L21.9746 10.2412C22.0743 9.73869 21.8748 9.13568 21.4759 8.63316ZM19.9797 10.0402L18.7828 20.0905H5.31708L3.92049 10.0402H19.9797Z" fill="url(#paint0_linear_304_8752)"/>
<path d="M4.02024 6.22111C4.02024 6.1206 4.11989 6.0201 4.41913 6.0201H19.6803C19.8798 6.0201 20.0794 6.1206 20.0794 6.22111V7.02513H21.0769V6.22111C21.0769 5.51759 20.4783 5.01508 19.6803 5.01508H4.41913C3.62116 5.01508 3.02278 5.51759 3.02278 6.22111V7.02513H4.02024V6.22111Z" fill="url(#paint1_linear_304_8752)"/>
<path d="M6.01516 3.20603C6.01516 3.10553 6.11481 3.00503 6.41404 3.00503H17.6854C17.8849 3.00503 18.0845 3.10553 18.0845 3.20603V4.01005H19.082V3.20603C19.082 2.50251 18.4833 2 17.6854 2H6.41404C5.71582 2 5.0177 2.50251 5.0177 3.20603V4.01005H6.01516V3.20603Z" fill="url(#paint2_linear_304_8752)"/>
<path d="M11.9999 19.0854C12.0997 19.0854 12.299 18.9849 12.3988 18.8844L15.3912 15.6683L14.693 14.9648L12.5985 17.2764V11.0452H11.601V17.2764L9.50626 14.9648L8.80809 15.6683L11.8005 18.8844C11.7007 18.9849 11.9002 19.0854 11.9999 19.0854Z" fill="url(#paint3_linear_304_8752)"/>
<defs>
<linearGradient id="paint0_linear_304_8752" x1="2" y1="22" x2="20.5231" y2="23.2852" gradientUnits="userSpaceOnUse">
<stop stop-color="#1DD13B"/>
<stop offset="1" stop-color="#27C6E5"/>
</linearGradient>
<linearGradient id="paint1_linear_304_8752" x1="2" y1="22" x2="20.5231" y2="23.2852" gradientUnits="userSpaceOnUse">
<stop stop-color="#1DD13B"/>
<stop offset="1" stop-color="#27C6E5"/>
</linearGradient>
<linearGradient id="paint2_linear_304_8752" x1="2" y1="22" x2="20.5231" y2="23.2852" gradientUnits="userSpaceOnUse">
<stop stop-color="#1DD13B"/>
<stop offset="1" stop-color="#27C6E5"/>
</linearGradient>
<linearGradient id="paint3_linear_304_8752" x1="2" y1="22" x2="20.5231" y2="23.2852" gradientUnits="userSpaceOnUse">
<stop stop-color="#1DD13B"/>
<stop offset="1" stop-color="#27C6E5"/>
</linearGradient>
</defs>
</svg>
