<svg width="40" height="40" viewBox="0 0 40 40" fill="none" xmlns="http://www.w3.org/2000/svg">
<rect width="40" height="40" rx="20" fill="#2A2522" fill-opacity="0.6"/>
<path d="M24.6705 14.4559C24.6088 11.9845 22.584 10 20.0953 10C17.5677 10 15.5186 12.047 15.5186 14.5721V19.1217L15.5202 19.2378C15.5846 21.708 17.6077 23.6909 20.0953 23.6937C22.6217 23.6909 24.6691 21.6456 24.672 19.1217V14.5721L24.6705 14.4559Z" fill="white" fill-opacity="0.96"/>
<path d="M20.597 25.7106C23.8546 25.4461 26.3647 22.7301 26.369 19.465C26.369 18.9625 26.7773 18.5552 27.2797 18.5552C27.7822 18.5552 28.1905 18.9625 28.1905 19.465C28.1853 23.5673 25.1103 27.0178 21.032 27.4977V29.0631C21.032 29.5805 20.6126 29.9999 20.0952 29.9999C19.5779 29.9999 19.1585 29.5805 19.1585 29.0631V27.4977C15.0802 27.0178 12.0052 23.5673 12 19.465C12 18.9625 12.4082 18.5552 12.9107 18.5552C13.4132 18.5552 13.8215 18.9625 13.8215 19.465C13.8258 22.7301 16.3359 25.4461 19.5935 25.7106H20.597Z" fill="white" fill-opacity="0.96"/>
</svg>
