<svg width="114" height="114" viewBox="0 0 114 114" fill="none" xmlns="http://www.w3.org/2000/svg">
<path d="M54.2857 32.5714C54.2857 31.0724 55.5009 29.8571 57 29.8571C58.4991 29.8571 59.7143 31.0724 59.7143 32.5714V65.1429C59.7143 66.6419 58.4991 67.8571 57 67.8571C55.5009 67.8571 54.2857 66.6419 54.2857 65.1429V32.5714Z" fill="#E83737"/>
<path d="M52.9286 77.3571C52.9286 75.1086 54.7514 73.2857 57 73.2857C59.2486 73.2857 61.0714 75.1086 61.0714 77.3571C61.0714 79.6057 59.2486 81.4286 57 81.4286C54.7514 81.4286 52.9286 79.6057 52.9286 77.3571Z" fill="#E83737"/>
<path fill-rule="evenodd" clip-rule="evenodd" d="M57 108.571C85.4821 108.571 108.571 85.4821 108.571 57C108.571 28.5179 85.4821 5.42857 57 5.42857C28.5179 5.42857 5.42857 28.5179 5.42857 57C5.42857 85.4821 28.5179 108.571 57 108.571ZM57 114C88.4802 114 114 88.4802 114 57C114 25.5198 88.4802 0 57 0C25.5198 0 0 25.5198 0 57C0 88.4802 25.5198 114 57 114Z" fill="#E83737"/>
</svg>
