<svg width="24" height="24" viewBox="0 0 24 24" fill="none" xmlns="http://www.w3.org/2000/svg">
<path fill-rule="evenodd" clip-rule="evenodd" d="M15.3332 7.33333C15.3332 5.49248 13.8408 4 11.9999 4C10.159 4 8.66657 5.49248 8.66657 7.33333V8C8.66657 9.84086 10.159 11.3333 11.9999 11.3333L12.1493 11.3299C13.9361 11.2422 15.3332 9.77899 15.3332 8V7.33333ZM9.9999 7.33333C9.9999 6.22886 10.8954 5.33333 11.9999 5.33333C13.1044 5.33333 13.9999 6.22886 13.9999 7.33333V8C13.9999 9.06721 13.1614 9.94537 12.1003 9.99754L11.9836 10.0002C10.8954 10 9.9999 9.10448 9.9999 8V7.33333ZM14.9998 11.9999C14.79 11.9999 14.5924 12.0987 14.4665 12.2666L11.9998 15.5555L9.53317 12.2666C9.40727 12.0987 9.20968 11.9999 8.99984 11.9999H8.6665C6.45719 11.9999 4.6665 13.7909 4.6665 15.9999V19.0667C4.6665 19.9551 5.38652 20.6667 6.2745 20.6667H17.7252C18.6132 20.6667 19.3332 19.9551 19.3332 19.0667V15.9999C19.3332 13.7909 17.5425 11.9999 15.3332 11.9999H14.9998ZM5.99984 15.9999C5.99984 14.5718 7.12236 13.4059 8.5334 13.3365L8.6665 13.3333L11.4665 17.0666C11.7332 17.4222 12.2665 17.4222 12.5332 17.0666L15.3332 13.3333C16.8061 13.3333 17.9998 14.5272 17.9998 15.9999V19.0667C17.9998 19.2152 17.8803 19.3333 17.7252 19.3333H6.2745C6.1194 19.3333 5.99984 19.2152 5.99984 19.0667V15.9999ZM15.9999 18.0059H14.6666C14.2984 18.0059 13.9999 17.7074 13.9999 17.3392C13.9999 16.971 14.2984 16.6725 14.6666 16.6725H15.9999C16.3681 16.6725 16.6666 16.971 16.6666 17.3392C16.6666 17.7074 16.3681 18.0059 15.9999 18.0059Z" fill="url(#paint0_linear_1415_76487)"/>
<defs>
<linearGradient id="paint0_linear_1415_76487" x1="4.6665" y1="20.6667" x2="18.2648" y2="21.497" gradientUnits="userSpaceOnUse">
<stop stop-color="#1DD13B"/>
<stop offset="1" stop-color="#27C6E5"/>
</linearGradient>
</defs>
</svg>
