<svg width="16" height="16" viewBox="0 0 16 16" fill="none" xmlns="http://www.w3.org/2000/svg">
<path fill-rule="evenodd" clip-rule="evenodd" d="M9 1.125C9 0.572715 8.55229 0.125 8 0.125C7.44772 0.125 7 0.572715 7 1.125V7H1.125C0.572715 7 0.125 7.44772 0.125 8C0.125 8.55229 0.572715 9 1.125 9H7V14.875C7 15.4273 7.44772 15.875 8 15.875C8.55229 15.875 9 15.4273 9 14.875V9H14.875C15.4273 9 15.875 8.55229 15.875 8C15.875 7.44772 15.4273 7 14.875 7H9V1.125Z" fill="url(#paint0_linear_302_8322)"/>
<defs>
<linearGradient id="paint0_linear_302_8322" x1="0.125" y1="15.875" x2="14.712" y2="16.8871" gradientUnits="userSpaceOnUse">
<stop stop-color="#1DD13B"/>
<stop offset="1" stop-color="#27C6E5"/>
</linearGradient>
</defs>
</svg>
