<svg width="119" height="119" viewBox="0 0 119 119" fill="none" xmlns="http://www.w3.org/2000/svg">
<path d="M56.6667 34C56.6667 32.4352 57.9352 31.1667 59.5 31.1667C61.0648 31.1667 62.3333 32.4352 62.3333 34V68C62.3333 69.5648 61.0648 70.8333 59.5 70.8333C57.9352 70.8333 56.6667 69.5648 56.6667 68V34Z" fill="#FA6D20"/>
<path d="M55.25 80.75C55.25 78.4028 57.1528 76.5 59.5 76.5C61.8472 76.5 63.75 78.4028 63.75 80.75C63.75 83.0972 61.8472 85 59.5 85C57.1528 85 55.25 83.0972 55.25 80.75Z" fill="#FA6D20"/>
<path fill-rule="evenodd" clip-rule="evenodd" d="M59.5 113.333C89.2313 113.333 113.333 89.2313 113.333 59.5C113.333 29.7687 89.2313 5.66667 59.5 5.66667C29.7687 5.66667 5.66667 29.7687 5.66667 59.5C5.66667 89.2313 29.7687 113.333 59.5 113.333ZM59.5 119C92.3609 119 119 92.3609 119 59.5C119 26.6391 92.3609 0 59.5 0C26.6391 0 0 26.6391 0 59.5C0 92.3609 26.6391 119 59.5 119Z" fill="#FA6D20"/>
</svg>
